<svg width="62" height="62" viewBox="0 0 62 62" fill="none" xmlns="http://www.w3.org/2000/svg">
<g clip-path="url(#clip0_3_118)">
<path d="M26.2849 -3.21493e-06C27.8539 0.598328 29.4229 1.21283 31.0081 1.79499C37.5591 4.20448 44.1101 6.61398 50.6611 9.02347C51.4052 9.29838 51.7125 9.71883 51.7125 10.4465C51.7125 14.1982 51.7125 17.9499 51.6963 21.7016C51.6963 22.5749 51.2434 23.1408 50.5317 23.2217C49.6906 23.3026 49.0759 22.7042 49.0597 21.7663C49.0436 19.4215 49.0597 17.0928 49.0597 14.748C49.0597 13.9233 49.0597 13.0986 49.0597 12.193C47.6687 12.6943 46.3261 13.1794 44.9997 13.6807C39.209 15.8153 33.4182 17.9499 27.6113 20.0683C27.2069 20.2139 27.1098 20.4079 27.126 20.8122C27.1422 24.5477 27.1422 28.2833 27.126 32.0026C27.126 32.229 27.1422 32.4554 27.0937 32.6656C26.9643 33.2478 26.3981 33.6521 25.7835 33.6197C25.1688 33.6035 24.6674 33.1669 24.5865 32.5524C24.5541 32.2937 24.538 32.0349 24.538 31.7762C24.538 28.1377 24.5218 24.5154 24.5541 20.8769C24.5541 20.3918 24.4086 20.1815 23.9556 20.0198C17.0488 17.4971 10.1581 14.9583 3.26742 12.4194C3.08949 12.3547 2.89538 12.29 2.60423 12.193C2.60423 12.4841 2.60423 12.7105 2.60423 12.953C2.60423 21.8472 2.60423 30.7413 2.58805 39.6354C2.58805 40.2014 2.7498 40.4601 3.29977 40.6703C9.67284 42.9828 16.0297 45.3438 22.3866 47.6886C23.2439 47.9958 23.6483 48.4971 23.5836 49.144C23.4866 50.0496 22.6293 50.5509 21.6911 50.1951C19.2163 49.2895 16.7415 48.3678 14.2666 47.4622C9.8993 45.8612 5.54814 44.2441 1.1808 42.6432C0.226455 42.2874 0.0161762 41.9802 0.0161762 40.9937C0.0161762 30.8545 0.0161762 20.699 0.0161762 10.5597C0.0161762 9.60563 0.258806 9.31455 1.16462 8.97496C9.13906 6.04799 17.1135 3.12102 25.0717 0.177879C25.2011 0.129366 25.3144 0.0485101 25.4438 -0.0161743C25.7188 -3.21493e-06 25.9937 -3.21493e-06 26.2849 -3.21493e-06ZM46.5526 10.3495C46.3585 10.2525 46.2776 10.204 46.1805 10.1716C39.5325 7.72978 32.9006 5.27178 26.2364 2.84611C25.9776 2.74908 25.6379 2.76526 25.3791 2.86228C19.1839 5.12624 13.005 7.40636 6.80981 9.68649C6.25985 9.88054 5.72606 10.0908 5.07905 10.3495C11.8889 12.856 18.5693 15.314 25.2497 17.7882C25.3306 17.8205 25.4114 17.8691 25.4761 17.8529C25.7835 17.8367 26.1231 17.8852 26.3981 17.772C29.1156 16.7856 31.833 15.783 34.5505 14.7804C38.5296 13.3088 42.4926 11.8534 46.5526 10.3495Z" fill="white"/>
<path d="M62 46.7183C61.8059 47.7047 61.6765 48.7073 61.3853 49.6614C59.2502 56.5018 54.6402 60.6578 47.5878 61.7898C38.7075 63.2128 30.2478 57.0193 28.695 48.1899C27.0937 39.1341 32.9006 30.5472 41.8617 28.7037C51.1302 26.7955 60.2045 33.0537 61.7735 42.3844C61.8382 42.7726 61.9353 43.1607 62 43.5488C62 44.6322 62 45.6833 62 46.7183ZM59.4119 45.1659C59.3796 37.3229 52.9903 30.9677 45.1938 30.9838C37.3812 31.0162 30.9919 37.4199 31.0081 45.2144C31.0243 53.025 37.462 59.4288 45.2424 59.3803C53.1036 59.3318 59.4443 52.9603 59.4119 45.1659Z" fill="white"/>
<path d="M43.916 49.7585C43.916 49.3057 43.916 49.0308 43.916 48.7559C43.916 45.1982 43.916 41.6568 43.916 38.0991C43.916 37.9212 43.916 37.7434 43.916 37.5493C43.9645 36.6599 44.466 36.1262 45.2424 36.1424C46.0188 36.1586 46.504 36.7084 46.504 37.5978C46.504 41.4142 46.504 45.2306 46.504 49.0308C46.504 49.2248 46.504 49.4189 46.504 49.7423C46.7467 49.5321 46.8923 49.3865 47.054 49.241C48.7039 47.6077 50.3376 45.9583 51.9875 44.325C52.4566 43.856 53.0712 43.759 53.5888 44.0339C54.1064 44.325 54.3491 44.7778 54.252 45.3438C54.1873 45.6349 54.0256 45.9583 53.7991 46.1685C51.2919 48.7074 48.7524 51.2301 46.2291 53.7527C45.5821 54.3834 44.8865 54.3996 44.2557 53.7689C41.7 51.2462 39.1605 48.6912 36.6371 46.1523C36.0548 45.5702 36.0548 44.7778 36.5724 44.2603C37.09 43.7267 37.8988 43.7428 38.5134 44.3412C40.131 45.9421 41.7485 47.5592 43.3499 49.1763C43.4631 49.3542 43.6248 49.4997 43.916 49.7585Z" fill="white"/>
</g>
<defs>
<clipPath id="clip0_3_118">
<rect width="62" height="62" fill="white"/>
</clipPath>
</defs>
</svg>
