<svg width="164" height="137" viewBox="0 0 164 137" fill="none" xmlns="http://www.w3.org/2000/svg">
<g clip-path="url(#clip0_4_344)">
<path d="M82.1923 86.3881C61.4759 86.3284 44.9087 69.6418 44.9983 48.8955C45.058 28.4478 61.7744 11.9104 82.4013 11.9403C103.118 11.9701 119.715 28.7463 119.625 49.5821C119.565 69.8806 102.7 86.4478 82.1923 86.3881ZM82.252 83.8507C101.267 83.8806 116.939 68.3881 116.998 49.4627C117.058 30.1791 101.595 14.5672 82.3416 14.5373C63.1774 14.5075 47.6252 30 47.5953 49.194C47.5356 68.209 63.1475 83.8209 82.252 83.8507Z" fill="#808697"/>
<path d="M45.8938 80.0895C45.8938 78.2388 45.9237 76.7164 45.8938 75.194C45.8938 74.3284 45.9834 73.5224 47.058 73.4627C48.1923 73.3731 48.4908 74.1791 48.5207 75.1045C48.6401 77.8806 48.7595 80.6567 48.8192 83.4627C48.849 84.6567 48.2222 85.1642 47.0281 85.0448C44.3714 84.7463 41.6849 84.4776 39.0281 84.1791C38.7893 84.1493 38.4311 84.1791 38.3117 84.0597C37.8938 83.6119 37.3266 83.1045 37.2968 82.5672C37.2669 82.2687 38.1625 81.5821 38.6102 81.5821C40.3416 81.6119 42.0431 81.8507 44.0431 82.0298C43.1177 80.806 42.3117 79.8209 41.5655 78.806C20.0729 49.6716 36.7296 7.49254 72.2819 0.925372C85.446 -1.52239 97.6849 0.895521 108.939 8.14925C109.327 8.38806 109.685 8.65671 110.043 8.89552C110.849 9.46268 111.715 10.0896 110.909 11.1642C110.192 12.1493 109.356 11.6119 108.58 11.0746C99.864 5.07462 90.2222 2.29851 79.6252 2.68657C58.7893 3.43283 40.3117 18.6567 35.8341 39.0149C32.6401 53.5224 35.6252 66.7164 44.6401 78.5373C44.9684 78.9851 45.3266 79.403 45.8938 80.0895Z" fill="#808697"/>
<path d="M118.133 18.9254C118.133 20.4478 118.103 21.9403 118.133 23.4627C118.163 24.4478 117.983 25.3731 116.789 25.3731C115.715 25.3731 115.506 24.5075 115.476 23.5821C115.416 20.8955 115.297 18.209 115.177 15.5224C115.118 14.2388 115.685 13.6418 116.969 13.791C119.834 14.0895 122.7 14.3881 125.566 14.7164C126.431 14.806 127.088 15.3731 126.76 16.209C126.551 16.7164 125.715 17.2836 125.148 17.2537C123.536 17.2239 121.894 16.9254 120.043 16.7164C120.342 17.1642 120.491 17.4627 120.67 17.7015C129.118 28.0597 132.76 39.9403 131.834 53.2239C130.252 75.4328 112.939 94.3284 90.9088 98.0298C77.8043 100.239 65.7148 97.6418 54.6401 90.3881C54.1924 90.0895 53.5954 89.8507 53.3566 89.403C53.0879 88.9254 52.8789 88.0895 53.1177 87.7612C53.3864 87.403 54.1924 87.3433 54.7595 87.3433C55.0879 87.3433 55.4163 87.7313 55.7446 87.9701C83.3864 106.836 121.327 91.7313 128.312 58.9552C131.416 44.3582 128.013 31.1642 118.76 19.4627C118.58 19.2239 118.491 18.9254 118.371 18.6866C118.282 18.7463 118.192 18.8358 118.133 18.9254Z" fill="#808697"/>
<path d="M76.1923 58.1493C73.4759 58.3881 73.4759 58.3881 72.3714 56.1493C70.8788 53.194 69.4162 50.2388 67.8341 47.1045C67.8341 50.9254 67.8341 54.5075 67.8341 58.1493C66.9684 58.1493 66.1923 58.1493 65.2968 58.1493C65.2968 52.8358 65.2968 47.5522 65.2968 42.2687C67.8341 41.7612 67.9236 41.8209 69.0579 44C70.5505 46.9552 72.0132 49.9104 73.6251 53.1343C73.6251 49.3134 73.6251 45.8209 73.6251 42.1791C74.4311 42.1791 75.2669 42.1791 76.1923 42.1791C76.1923 47.5224 76.1923 52.8358 76.1923 58.1493Z" fill="#808697"/>
<path d="M88.7894 44.7761C86.7297 44.7761 84.8192 44.7761 82.7894 44.7761C82.7894 46.1492 82.7894 47.4328 82.7894 48.8657C84.4312 48.8657 86.0729 48.8657 87.864 48.8657C87.864 49.8507 87.864 50.6567 87.864 51.6418C86.1625 51.6418 84.5207 51.6418 82.6998 51.6418C82.6998 53.8806 82.6998 55.9403 82.6998 58.1194C81.7446 58.1194 80.9386 58.1194 79.9834 58.1194C79.9834 52.8657 79.9834 47.5821 79.9834 42.1791C82.9088 42.1791 85.8043 42.1791 88.7894 42.1791C88.7894 43.0149 88.7894 43.791 88.7894 44.7761Z" fill="#808697"/>
<path d="M90.1625 44.806C90.1625 43.8209 90.1625 43.0746 90.1625 42.209C93.8043 42.209 97.4162 42.209 101.118 42.209C101.118 43.0448 101.118 43.8507 101.118 44.806C99.7744 44.806 98.4908 44.806 97.0879 44.806C97.0879 49.3134 97.0879 53.6716 97.0879 58.1493C96.1326 58.1493 95.2968 58.1493 94.3117 58.1493C94.3117 53.8209 94.3117 49.403 94.3117 44.8358C92.849 44.806 91.5356 44.806 90.1625 44.806Z" fill="#808697"/>
<path d="M105.386 67.5224C103.595 69.194 101.954 70.7463 100.222 72.388C99.5953 71.6119 99.058 70.9851 98.6699 70.5075C100.252 68.9851 101.774 67.5224 103.386 65.9701C103.715 66.2388 104.371 66.7463 105.386 67.5224Z" fill="#808697"/>
<path d="M78.4609 78.3881C78.5803 77.5224 78.6699 76.7761 78.7893 75.9403C80.9386 75.9403 82.9983 75.9403 85.2072 75.9403C85.2968 76.6567 85.3863 77.403 85.5356 78.3881C83.1475 78.3881 80.8788 78.3881 78.4609 78.3881Z" fill="#808697"/>
<path d="M96.252 23.4925C95.7446 24.4179 95.3864 25.0746 94.9983 25.791C92.9983 24.9851 91.058 24.209 88.9983 23.403C89.2072 22.6567 89.4162 21.9104 89.6849 20.8955C91.8938 21.7612 93.9535 22.5672 96.252 23.4925Z" fill="#808697"/>
<path d="M95.1774 72.597C95.5654 73.3134 95.9535 73.9702 96.4609 74.8657C94.2818 75.791 92.1923 76.6866 89.9833 77.6119C89.6848 76.6269 89.446 75.9104 89.1774 75.1343C91.1774 74.2985 93.058 73.4925 95.1774 72.597Z" fill="#808697"/>
<path d="M107.804 56.3881C108.61 56.6269 109.327 56.806 110.312 57.1045C109.446 59.3134 108.61 61.3731 107.715 63.6418C106.819 63.1642 106.162 62.8358 105.386 62.4179C106.162 60.4179 106.939 58.4776 107.804 56.3881Z" fill="#808697"/>
<path d="M55.9834 56.597C56.849 58.6269 57.6251 60.4776 58.5207 62.5373C57.9237 62.8955 57.2371 63.2836 56.2819 63.8209C55.3266 61.6716 54.4311 59.5821 53.446 57.3134C54.461 57.0448 55.2072 56.8358 55.9834 56.597Z" fill="#808697"/>
<path d="M105.237 36C105.924 35.6119 106.58 35.2239 107.506 34.6866C108.461 36.8657 109.327 38.9254 110.312 41.1343C109.386 41.4328 108.64 41.6716 107.834 41.9403C106.939 39.9702 106.103 38.0299 105.237 36Z" fill="#808697"/>
<path d="M58.9983 67.3731C59.5655 66.9254 60.1625 66.4478 60.6401 66.0597C62.1625 67.6418 63.5953 69.1343 65.1774 70.7463C64.9386 71.0746 64.461 71.6716 63.7147 72.6269C62.1625 70.8657 60.6699 69.194 58.9983 67.3731Z" fill="#808697"/>
<path d="M55.1177 52.597C54.4013 52.6866 53.6848 52.806 52.7296 52.9254C52.7296 50.5672 52.7296 48.3284 52.7296 45.9403C53.5356 46 54.252 46.0298 55.1177 46.0895C55.1177 48.2388 55.1177 50.3284 55.1177 52.597Z" fill="#808697"/>
<path d="M111.058 52.6269C110.192 52.5373 109.476 52.4776 108.64 52.4179C108.64 50.2687 108.64 48.209 108.64 45.9701C109.327 45.8806 110.073 45.7612 111.058 45.6418C111.058 48.0298 111.058 50.2687 111.058 52.6269Z" fill="#808697"/>
<path d="M55.9834 42.1791C55.2073 41.9403 54.461 41.7313 53.476 41.4328C54.3715 39.2239 55.2073 37.1642 56.1028 34.9254C56.9983 35.403 57.7148 35.791 58.4013 36.1791C57.5954 38.1791 56.8192 40.0895 55.9834 42.1791Z" fill="#808697"/>
<path d="M74.7595 75.1642C74.5505 75.9104 74.3416 76.6269 74.0729 77.6716C71.8639 76.7761 69.7445 75.9403 67.5057 75.0448C68.0132 74.1194 68.3714 73.4328 68.7595 72.7463C70.7595 73.5522 72.6998 74.3284 74.7595 75.1642Z" fill="#808697"/>
<path d="M63.7744 26.3881C64.2222 26.9552 64.7297 27.5821 65.1177 28.0597C63.5058 29.5522 61.9535 31.0149 60.3118 32.5373C60.0431 32.3284 59.4162 31.8507 58.3715 31.0448C60.2222 29.4925 61.9237 28 63.7744 26.3881Z" fill="#808697"/>
<path d="M104.76 31.1642C104.192 31.6119 103.625 32.0896 103.177 32.4478C101.685 30.8657 100.252 29.3433 98.7894 27.8209C98.6401 27.9104 98.5207 27.9702 98.3715 28.0597C98.8491 27.4627 99.3267 26.8358 100.013 25.9403C101.625 27.7313 103.148 29.403 104.76 31.1642Z" fill="#808697"/>
<path d="M67.267 23.6716C69.5058 22.7164 71.5655 21.8507 73.7744 20.9254C74.0729 21.9104 74.3117 22.6567 74.5506 23.403C72.5506 24.2687 70.6103 25.1045 68.6103 25.9701C68.2222 25.2836 67.8341 24.6269 67.267 23.6716Z" fill="#808697"/>
<path d="M78.2222 20.1194C80.6699 20.1194 82.9087 20.1194 85.2968 20.1194C85.1774 21.0149 85.0878 21.7612 84.9684 22.6269C82.849 22.6269 80.7893 22.6269 78.5804 22.6269C78.4908 21.9104 78.3714 21.1642 78.2222 20.1194Z" fill="#808697"/>
</g>
<path d="M13.2955 117.455V132H11.5909L3.66477 120.58H3.52273V132H1.76136V117.455H3.46591L11.4205 128.903H11.5625V117.455H13.2955ZM21.0245 132.227C20.0397 132.227 19.1755 131.993 18.4322 131.524C17.6935 131.055 17.1159 130.4 16.6992 129.557C16.2873 128.714 16.0813 127.729 16.0813 126.602C16.0813 125.466 16.2873 124.474 16.6992 123.626C17.1159 122.779 17.6935 122.121 18.4322 121.652C19.1755 121.183 20.0397 120.949 21.0245 120.949C22.0094 120.949 22.8711 121.183 23.6097 121.652C24.3531 122.121 24.9308 122.779 25.3427 123.626C25.7594 124.474 25.9677 125.466 25.9677 126.602C25.9677 127.729 25.7594 128.714 25.3427 129.557C24.9308 130.4 24.3531 131.055 23.6097 131.524C22.8711 131.993 22.0094 132.227 21.0245 132.227ZM21.0245 130.722C21.7726 130.722 22.3881 130.53 22.8711 130.146C23.354 129.763 23.7115 129.259 23.9435 128.634C24.1755 128.009 24.2915 127.331 24.2915 126.602C24.2915 125.873 24.1755 125.194 23.9435 124.564C23.7115 123.934 23.354 123.425 22.8711 123.037C22.3881 122.649 21.7726 122.455 21.0245 122.455C20.2764 122.455 19.6609 122.649 19.1779 123.037C18.695 123.425 18.3375 123.934 18.1055 124.564C17.8735 125.194 17.7575 125.873 17.7575 126.602C17.7575 127.331 17.8735 128.009 18.1055 128.634C18.3375 129.259 18.695 129.763 19.1779 130.146C19.6609 130.53 20.2764 130.722 21.0245 130.722ZM34.3786 132V117.455H39.2933C40.4297 117.455 41.3625 117.649 42.0916 118.037C42.8208 118.42 43.3606 118.948 43.7109 119.621C44.0613 120.293 44.2365 121.058 44.2365 121.915C44.2365 122.772 44.0613 123.532 43.7109 124.195C43.3606 124.857 42.8232 125.378 42.0987 125.757C41.3743 126.131 40.4486 126.318 39.3217 126.318H35.3445V124.727H39.2649C40.0414 124.727 40.6664 124.614 41.1399 124.386C41.6181 124.159 41.9638 123.837 42.1768 123.42C42.3946 122.999 42.5036 122.497 42.5036 121.915C42.5036 121.332 42.3946 120.823 42.1768 120.388C41.959 119.952 41.611 119.616 41.1328 119.379C40.6546 119.138 40.0225 119.017 39.2365 119.017H36.1399V132H34.3786ZM41.2251 125.466L44.8047 132H42.7592L39.2365 125.466H41.2251ZM51.4009 132.227C50.3498 132.227 49.4431 131.995 48.6808 131.531C47.9232 131.062 47.3384 130.409 46.9265 129.571C46.5193 128.728 46.3157 127.748 46.3157 126.631C46.3157 125.513 46.5193 124.528 46.9265 123.676C47.3384 122.819 47.9113 122.152 48.6452 121.673C49.3839 121.19 50.2456 120.949 51.2305 120.949C51.7987 120.949 52.3597 121.044 52.9137 121.233C53.4677 121.422 53.9719 121.73 54.4265 122.156C54.881 122.578 55.2433 123.136 55.5131 123.832C55.783 124.528 55.918 125.385 55.918 126.403V127.114H47.5089V125.665H54.2134C54.2134 125.049 54.0903 124.5 53.8441 124.017C53.6026 123.534 53.257 123.153 52.8072 122.874C52.3621 122.594 51.8365 122.455 51.2305 122.455C50.5629 122.455 49.9852 122.62 49.4975 122.952C49.0146 123.278 48.6429 123.705 48.3825 124.23C48.122 124.756 47.9918 125.319 47.9918 125.92V126.886C47.9918 127.71 48.1339 128.409 48.418 128.982C48.7068 129.55 49.1069 129.983 49.6183 130.281C50.1296 130.575 50.7238 130.722 51.4009 130.722C51.8413 130.722 52.239 130.66 52.5941 130.537C52.954 130.409 53.2641 130.22 53.5245 129.969C53.7849 129.713 53.9862 129.396 54.1282 129.017L55.7475 129.472C55.5771 130.021 55.2906 130.504 54.8881 130.92C54.4857 131.332 53.9885 131.654 53.3967 131.886C52.8048 132.114 52.1396 132.227 51.4009 132.227ZM62.8995 132.227C61.8768 132.227 60.9961 131.986 60.2575 131.503C59.5188 131.02 58.9506 130.355 58.5529 129.507C58.1552 128.66 57.9563 127.691 57.9563 126.602C57.9563 125.494 58.1599 124.517 58.5671 123.669C58.979 122.817 59.552 122.152 60.2859 121.673C61.0245 121.19 61.8862 120.949 62.8711 120.949C63.6381 120.949 64.3294 121.091 64.945 121.375C65.5605 121.659 66.0647 122.057 66.4577 122.568C66.8507 123.08 67.0946 123.676 67.1893 124.358H65.5131C65.3853 123.861 65.1012 123.42 64.6609 123.037C64.2253 122.649 63.6381 122.455 62.8995 122.455C62.2461 122.455 61.6732 122.625 61.1808 122.966C60.6931 123.302 60.3119 123.778 60.0373 124.393C59.7674 125.004 59.6325 125.722 59.6325 126.545C59.6325 127.388 59.765 128.122 60.0302 128.747C60.3001 129.372 60.6789 129.857 61.1665 130.203C61.659 130.549 62.2366 130.722 62.8995 130.722C63.3351 130.722 63.7305 130.646 64.0856 130.494C64.4407 130.343 64.7414 130.125 64.9876 129.841C65.2338 129.557 65.409 129.216 65.5131 128.818H67.1893C67.0946 129.462 66.8602 130.042 66.4862 130.558C66.1168 131.07 65.6268 131.477 65.016 131.78C64.4099 132.078 63.7044 132.227 62.8995 132.227ZM74.0714 132.227C73.0865 132.227 72.2224 131.993 71.479 131.524C70.7404 131.055 70.1628 130.4 69.7461 129.557C69.3342 128.714 69.1282 127.729 69.1282 126.602C69.1282 125.466 69.3342 124.474 69.7461 123.626C70.1628 122.779 70.7404 122.121 71.479 121.652C72.2224 121.183 73.0865 120.949 74.0714 120.949C75.0562 120.949 75.918 121.183 76.6566 121.652C77.4 122.121 77.9776 122.779 78.3896 123.626C78.8062 124.474 79.0146 125.466 79.0146 126.602C79.0146 127.729 78.8062 128.714 78.3896 129.557C77.9776 130.4 77.4 131.055 76.6566 131.524C75.918 131.993 75.0562 132.227 74.0714 132.227ZM74.0714 130.722C74.8195 130.722 75.435 130.53 75.918 130.146C76.4009 129.763 76.7584 129.259 76.9904 128.634C77.2224 128.009 77.3384 127.331 77.3384 126.602C77.3384 125.873 77.2224 125.194 76.9904 124.564C76.7584 123.934 76.4009 123.425 75.918 123.037C75.435 122.649 74.8195 122.455 74.0714 122.455C73.3233 122.455 72.7077 122.649 72.2248 123.037C71.7418 123.425 71.3844 123.934 71.1523 124.564C70.9203 125.194 70.8043 125.873 70.8043 126.602C70.8043 127.331 70.9203 128.009 71.1523 128.634C71.3844 129.259 71.7418 129.763 72.2248 130.146C72.7077 130.53 73.3233 130.722 74.0714 130.722ZM81.5732 132V121.091H83.1925V122.739H83.3061C83.505 122.199 83.8648 121.761 84.3857 121.425C84.9065 121.089 85.4936 120.92 86.147 120.92C86.2701 120.92 86.424 120.923 86.6087 120.928C86.7933 120.932 86.933 120.939 87.0277 120.949V122.653C86.9709 122.639 86.8407 122.618 86.6371 122.589C86.4382 122.556 86.2275 122.54 86.005 122.54C85.4747 122.54 85.0012 122.651 84.5845 122.874C84.1726 123.091 83.8459 123.394 83.6044 123.783C83.3677 124.166 83.2493 124.604 83.2493 125.097V132H81.5732ZM92.8018 132.227C91.8928 132.227 91.0902 131.998 90.3942 131.538C89.6982 131.074 89.1536 130.421 88.7607 129.578C88.3677 128.731 88.1712 127.729 88.1712 126.574C88.1712 125.428 88.3677 124.434 88.7607 123.591C89.1536 122.748 89.7005 122.097 90.4013 121.638C91.102 121.179 91.9117 120.949 92.8303 120.949C93.5405 120.949 94.1016 121.067 94.5135 121.304C94.9302 121.536 95.2474 121.801 95.4652 122.099C95.6877 122.393 95.8606 122.634 95.9837 122.824H96.1257V117.455H97.8018V132H96.1825V130.324H95.9837C95.8606 130.523 95.6854 130.774 95.4581 131.077C95.2308 131.375 94.9065 131.643 94.4851 131.879C94.0637 132.111 93.5026 132.227 92.8018 132.227ZM93.0291 130.722C93.7015 130.722 94.2696 130.546 94.7337 130.196C95.1977 129.841 95.5504 129.351 95.7919 128.726C96.0334 128.096 96.1541 127.369 96.1541 126.545C96.1541 125.731 96.0357 125.018 95.799 124.408C95.5623 123.792 95.2119 123.314 94.7479 122.973C94.2839 122.627 93.7109 122.455 93.0291 122.455C92.3189 122.455 91.727 122.637 91.2536 123.001C90.7848 123.361 90.4321 123.851 90.1953 124.472C89.9633 125.087 89.8473 125.778 89.8473 126.545C89.8473 127.322 89.9657 128.027 90.2024 128.662C90.4439 129.292 90.799 129.794 91.2678 130.168C91.7412 130.537 92.3284 130.722 93.0291 130.722ZM106.957 132V117.455H115.678V119.017H108.718V123.932H115.025V125.494H108.718V132H106.957ZM122.099 132.227C121.114 132.227 120.25 131.993 119.506 131.524C118.768 131.055 118.19 130.4 117.773 129.557C117.362 128.714 117.156 127.729 117.156 126.602C117.156 125.466 117.362 124.474 117.773 123.626C118.19 122.779 118.768 122.121 119.506 121.652C120.25 121.183 121.114 120.949 122.099 120.949C123.084 120.949 123.945 121.183 124.684 121.652C125.427 122.121 126.005 122.779 126.417 123.626C126.834 124.474 127.042 125.466 127.042 126.602C127.042 127.729 126.834 128.714 126.417 129.557C126.005 130.4 125.427 131.055 124.684 131.524C123.945 131.993 123.084 132.227 122.099 132.227ZM122.099 130.722C122.847 130.722 123.462 130.53 123.945 130.146C124.428 129.763 124.786 129.259 125.018 128.634C125.25 128.009 125.366 127.331 125.366 126.602C125.366 125.873 125.25 125.194 125.018 124.564C124.786 123.934 124.428 123.425 123.945 123.037C123.462 122.649 122.847 122.455 122.099 122.455C121.351 122.455 120.735 122.649 120.252 123.037C119.769 123.425 119.412 123.934 119.18 124.564C118.948 125.194 118.832 125.873 118.832 126.602C118.832 127.331 118.948 128.009 119.18 128.634C119.412 129.259 119.769 129.763 120.252 130.146C120.735 130.53 121.351 130.722 122.099 130.722ZM136.475 127.54V121.091H138.152V132H136.475V130.153H136.362C136.106 130.707 135.708 131.179 135.169 131.567C134.629 131.95 133.947 132.142 133.123 132.142C132.441 132.142 131.835 131.993 131.305 131.695C130.775 131.392 130.358 130.937 130.055 130.331C129.752 129.72 129.6 128.951 129.6 128.023V121.091H131.277V127.909C131.277 128.705 131.499 129.339 131.944 129.812C132.394 130.286 132.967 130.523 133.663 130.523C134.08 130.523 134.503 130.416 134.934 130.203C135.37 129.99 135.734 129.663 136.028 129.223C136.326 128.783 136.475 128.222 136.475 127.54ZM142.898 125.438V132H141.222V121.091H142.841V122.795H142.983C143.239 122.241 143.627 121.796 144.148 121.46C144.669 121.119 145.341 120.949 146.165 120.949C146.903 120.949 147.55 121.1 148.104 121.403C148.658 121.702 149.089 122.156 149.396 122.767C149.704 123.373 149.858 124.14 149.858 125.068V132H148.182V125.182C148.182 124.325 147.959 123.657 147.514 123.179C147.069 122.696 146.458 122.455 145.682 122.455C145.147 122.455 144.669 122.571 144.247 122.803C143.83 123.035 143.501 123.373 143.26 123.818C143.018 124.263 142.898 124.803 142.898 125.438ZM157.04 132.227C156.131 132.227 155.328 131.998 154.632 131.538C153.936 131.074 153.392 130.421 152.999 129.578C152.606 128.731 152.409 127.729 152.409 126.574C152.409 125.428 152.606 124.434 152.999 123.591C153.392 122.748 153.939 122.097 154.64 121.638C155.34 121.179 156.15 120.949 157.069 120.949C157.779 120.949 158.34 121.067 158.752 121.304C159.168 121.536 159.486 121.801 159.703 122.099C159.926 122.393 160.099 122.634 160.222 122.824H160.364V117.455H162.04V132H160.421V130.324H160.222C160.099 130.523 159.924 130.774 159.696 131.077C159.469 131.375 159.145 131.643 158.723 131.879C158.302 132.111 157.741 132.227 157.04 132.227ZM157.267 130.722C157.94 130.722 158.508 130.546 158.972 130.196C159.436 129.841 159.789 129.351 160.03 128.726C160.272 128.096 160.392 127.369 160.392 126.545C160.392 125.731 160.274 125.018 160.037 124.408C159.801 123.792 159.45 123.314 158.986 122.973C158.522 122.627 157.949 122.455 157.267 122.455C156.557 122.455 155.965 122.637 155.492 123.001C155.023 123.361 154.67 123.851 154.434 124.472C154.202 125.087 154.086 125.778 154.086 126.545C154.086 127.322 154.204 128.027 154.441 128.662C154.682 129.292 155.037 129.794 155.506 130.168C155.98 130.537 156.567 130.722 157.267 130.722Z" fill="#808697"/>
<defs>
<clipPath id="clip0_4_344">
<rect width="100" height="98.7761" fill="white" transform="translate(32)"/>
</clipPath>
</defs>
</svg>
