<svg width="302" height="44" viewBox="0 0 302 44" fill="none" xmlns="http://www.w3.org/2000/svg">
<g clip-path="url(#clip0_7_1910)">
<path d="M59.6354 28.6409C59.8607 31.9613 63.0456 33.1719 67.6663 33.1719C74.9793 33.1719 76.3254 31.1976 76.3254 29.8973C76.3254 27.1153 73.2704 26.3974 69.3256 25.8589L62.8222 24.9634C57.5732 24.2455 52.8628 22.0993 52.8628 15.9453C52.8628 10.2916 57.8864 6.7478 67.4429 6.7478C75.3822 6.7478 82.9644 9.08108 83.1897 17.2017H76.0562C75.8309 14.4197 72.646 13.0736 67.5766 13.0736C62.0145 13.0736 60.1738 14.4197 60.1738 15.9377C60.1738 17.912 62.8222 18.5402 66.366 19.0328L72.6021 19.9302C78.3895 20.7379 83.9954 23.1151 83.9954 29.8896C83.9954 35.5873 78.7026 39.4901 67.8916 39.4901C59.412 39.4901 52.6833 36.8437 52.458 28.6333L59.6354 28.6409Z" fill="white"/>
<path d="M87.854 7.42175H94.9875V20.566H115.757V7.42175H122.892V38.8255H115.757V26.3973H94.9875V38.8255H87.854V7.42175Z" fill="white"/>
<path d="M128.5 7.42175H135.633V38.8255H128.5V7.42175Z" fill="white"/>
<path d="M140.972 7.42175H163.851C170.132 7.42175 173.945 9.2605 173.945 16.4379C173.945 19.0862 172.958 21.8663 169.728 22.7198C173.81 23.5275 174.883 26.7563 174.883 29.8075C174.883 36.4464 171.16 38.8255 164.572 38.8255H140.972V7.42175ZM162.953 20.3407C165.735 20.3407 166.772 19.3555 166.772 17.1558C166.772 14.8226 165.559 13.8812 162.953 13.8812H148.104V20.3407H162.953ZM163.94 32.3699C166.363 32.3699 167.709 31.3827 167.709 29.0514C167.709 26.7601 166.678 25.5954 163.94 25.5954H148.104V32.3699H163.94Z" fill="white"/>
<path d="M178.7 7.42175H186.595L203.419 28.912H203.598V7.42175H210.598V38.8255H202.657L185.879 17.3811H185.7V38.8255H178.7V7.42175Z" fill="white"/>
<path d="M232.624 6.7478C243.391 6.7478 250.572 13.3887 250.572 23.033C250.572 32.4998 243.798 39.4977 232.624 39.4977C221.721 39.4977 214.544 32.8587 214.544 23.033C214.544 13.7018 221.408 6.7478 232.624 6.7478ZM232.624 33.0382C238.77 33.0382 243.345 29.8515 243.345 23.0788C243.345 16.2146 238.276 13.2092 232.624 13.2092C227.469 13.2092 221.767 15.8556 221.767 23.033C221.767 29.8515 226.388 33.0382 232.624 33.0382Z" fill="white"/>
<path d="M254.518 7.42175H277.398C283.68 7.42175 287.493 9.2605 287.493 16.4379C287.493 19.0862 286.506 21.8663 283.275 22.7198C287.358 23.5275 288.431 26.7563 288.431 29.8075C288.431 36.4464 284.707 38.8255 278.12 38.8255H254.518V7.42175ZM276.501 20.3407C279.281 20.3407 280.32 19.3555 280.32 17.1558C280.32 14.8226 279.107 13.8812 276.501 13.8812H261.652V20.3407H276.501ZM277.486 32.3699C279.909 32.3699 281.255 31.3827 281.255 29.0514C281.255 26.7601 280.224 25.5954 277.486 25.5954H261.652V32.3699H277.486Z" fill="white"/>
<path d="M293.278 7.42175H300.411V38.8255H293.278V7.42175Z" fill="white"/>
<path d="M29.3122 18.1259C30.8559 17.0998 32.6434 16.4999 34.4936 16.3869C36.3438 16.2739 38.1911 16.6518 39.8482 17.4824C39.1049 16.291 38.6106 14.9615 38.3952 13.5739C38.053 11.4188 38.3913 9.21071 39.3629 7.25691C40.3345 5.30311 41.891 3.70085 43.8159 2.67315C41.4238 1.41136 38.7718 0.721056 36.068 0.656418C33.3643 0.59178 30.6823 1.15456 28.2326 2.30061C25.7829 3.44665 23.6321 5.14478 21.949 7.26173C20.2659 9.37868 19.0962 11.8569 18.5317 14.5018C17.5043 12.959 16.9036 11.1717 16.7906 9.32148C16.6776 7.4713 17.0563 5.62416 17.8883 3.96772C16.6679 4.72717 15.3045 5.22801 13.8827 5.43919C12.4609 5.65038 11.0108 5.56743 9.62236 5.19547C8.23389 4.82352 6.93656 4.17049 5.81071 3.27681C4.68486 2.38313 3.75446 1.26784 3.07713 0C1.81617 2.39292 1.1268 5.04547 1.06313 7.74955C0.999454 10.4536 1.56319 13.1357 2.71012 15.5853C3.85705 18.0349 5.55598 20.1855 7.67361 21.8683C9.79124 23.551 12.27 24.7202 14.9153 25.2842C13.372 26.3103 11.5848 26.9102 9.73488 27.0232C7.88497 27.1362 6.03805 26.7583 4.38125 25.9277C5.14031 27.1481 5.64078 28.5114 5.85166 29.9331C6.06253 31.3548 5.97934 32.8047 5.60722 34.1929C5.23509 35.5812 4.58197 36.8783 3.68828 38.0039C2.79459 39.1295 1.67935 40.0597 0.411621 40.7369C2.80347 41.9964 5.45445 42.6849 8.15688 42.7486C10.8593 42.8123 13.5398 42.2494 15.9883 41.104C18.4368 39.9586 20.5869 38.2618 22.2701 36.1466C23.9532 34.0314 25.1238 31.5552 25.6901 28.912C26.7171 30.4551 27.3175 32.2425 27.4302 34.0926C27.5429 35.9428 27.1639 37.7899 26.3316 39.4462C27.552 38.6867 28.9154 38.1859 30.3372 37.9747C31.759 37.7635 33.2091 37.8464 34.5975 38.2184C35.986 38.5904 37.2833 39.2434 38.4092 40.1371C39.535 41.0307 40.4654 42.146 41.1428 43.4139C42.4037 41.021 43.0931 38.3684 43.1568 35.6643C43.2205 32.9603 42.6567 30.2782 41.5098 27.8286C40.3629 25.3789 38.6639 23.2284 36.5463 21.5456C34.4287 19.8628 31.9499 18.6936 29.3045 18.1297L29.3122 18.1259ZM25.6175 21.7041C25.6177 22.1647 25.5273 22.6209 25.3512 23.0465C25.1752 23.4722 24.917 23.859 24.5915 24.1849C24.266 24.5107 23.8794 24.7693 23.454 24.9458C23.0285 25.1223 22.5725 25.2133 22.1119 25.2135C21.6511 25.2135 21.1948 25.1227 20.7691 24.9464C20.3434 24.77 19.9567 24.5114 19.631 24.1855C19.3052 23.8596 19.0469 23.4727 18.8707 23.0469C18.6946 22.6212 18.604 22.1649 18.6043 21.7041C18.6043 20.7738 18.9738 19.8816 19.6316 19.2239C20.2894 18.5661 21.1816 18.1965 22.1119 18.1965C23.0421 18.1965 23.9343 18.5661 24.5921 19.2239C25.2499 19.8816 25.6194 20.7738 25.6194 21.7041H25.6175Z" fill="#AAFF01"/>
</g>
<defs>
<clipPath id="clip0_7_1910">
<rect width="301" height="44" fill="white" transform="translate(0.0615234)"/>
</clipPath>
</defs>
</svg>
