<svg xmlns="http://www.w3.org/2000/svg" width="24" height="24" viewBox="0 0 24 24">
  <defs>
    <style>
      .cls-1, .cls-2 {
        fill: #fff;
      }

      .cls-1 {
        opacity: 0;
      }
    </style>
  </defs>
  <g id="facebook_ico" transform="translate(-33 -398)">
    <rect id="Icon-container" class="cls-1" width="24" height="24" transform="translate(33 398)"/>
    <path id="facebook_ico-2" data-name="facebook_ico" class="cls-2" d="M5,3A2,2,0,0,0,3,5V19a2,2,0,0,0,2,2H19a2,2,0,0,0,2-2V5a2,2,0,0,0-2-2ZM5,5H19l0,14H14.414V15.035h2.365l.352-2.725h-2.7V10.574c0-.788.22-1.32,1.35-1.32h1.428V6.822a20.013,20.013,0,0,0-2.092-.1,3.273,3.273,0,0,0-3.494,3.59v2.006H9.277v2.725h2.344V19H5Z" transform="translate(33 398)"/>
  </g>
</svg>
