<svg xmlns="http://www.w3.org/2000/svg" width="24" height="24" viewBox="0 0 24 24">
    <path d="M12 4s-6.254 0-7.814.418a2.5 2.5 0 0 0-1.768 1.768A35.647 35.647 0 0 0 2 12a35.647 35.647 0 0 0 .418 5.814 2.5 2.5 0 0 0 1.768 1.768C5.746 20 12 20 12 20s6.254 0 7.814-.418a2.5 2.5 0 0 0 1.768-1.768A35.647 35.647 0 0 0 22 12a35.647 35.647 0 0 0-.418-5.814 2.5 2.5 0 0 0-1.768-1.768C18.254 4 12 4 12 4zm0 2a53.985 53.985 0 0 1 7.3.35.508.508 0 0 1 .354.354A32.03 32.03 0 0 1 20 12a32.039 32.039 0 0 1-.35 5.3.508.508 0 0 1-.354.354A53.975 53.975 0 0 1 12 18a54.007 54.007 0 0 1-7.3-.35.508.508 0 0 1-.35-.35A32.031 32.031 0 0 1 4 12a32.073 32.073 0 0 1 .35-5.3.505.505 0 0 1 .35-.35A53.975 53.975 0 0 1 12 6zm-2 2.535v6.93L16 12z" style="fill:#fff"/>
</svg>
