<?xml version="1.0" encoding="utf-8"?>
<!-- Generator: Adobe Illustrator 25.2.0, SVG Export Plug-In . SVG Version: 6.00 Build 0)  -->
<svg version="1.1" id="Layer_1" xmlns="http://www.w3.org/2000/svg" xmlns:xlink="http://www.w3.org/1999/xlink" x="0px" y="0px"
	 viewBox="0 0 200 47" style="enable-background:new 0 0 200 47;" xml:space="preserve">
<style type="text/css">
	.st0{fill:#000;}
	.st1{fill:#FFD77B;}
	.st2{fill:#DA37D5;}
</style>
<g>
	<g>
		<path class="st0" d="M152,29.4c-0.4-0.6-0.3-1.3-0.3-2c0-1.5-0.3-3.3,0.1-4.8l2.1,0.1l0.7-0.1l0.1-1V19h-2.1
			c-0.2,0-0.6,0.1-0.8-0.2c-0.2-0.2-0.1-0.7-0.1-0.9v-2.2c0-0.4,0.1-1-0.4-1.1c-0.9-0.1-1.9,0-2.8,0c-0.3,0-0.8-0.1-1,0.1
			c-0.2,0.2-0.2,0.6-0.3,0.9c-0.2,0.7-0.4,1.4-0.6,2.2c-0.1,0.3-0.1,0.9-0.4,1.1c-0.5,0.3-1.6,0.1-2.1,0.1c-0.2,0.9-0.1,1.8-0.1,2.7
			c0,0.3-0.1,0.8,0.1,1c0.3,0.3,1.5,0.1,1.9,0V29c0,1.2,0,2.5,0.8,3.4c1.8,2,5.4,1.2,7.7,0.8v-2.4c0-0.2,0.1-0.7-0.1-0.9
			C153.9,29.4,152.7,30.3,152,29.4z"/>
		<path class="st0" d="M123.8,14c-0.1-0.5-0.8-0.3-1.2-0.3h-3.2c-0.3,0-0.9-0.1-1.1,0.1c-0.3,0.3-0.1,1.3-0.1,1.7v4.6
			c-0.8-0.6-1.5-1.1-2.5-1.3c-0.8-0.2-1.6-0.3-2.4-0.1c-1,0.2-1.9,0.4-2.8,1.1c-2.4,1.8-2.7,5.5-2.3,8.2c0.3,2.3,1.4,4.6,3.8,5.4
			c1.1,0.4,2.2,0.3,3.3,0.2c1.4-0.2,2.4-1.1,3.3-2.1c0.1,0.4,0.2,1.6,0.5,1.8c0.2,0.2,0.7,0.1,1,0.1h2.4c0.3,0,0.9,0.1,1-0.2
			c0.2-0.6,0-1.4,0-2v-13C123.8,16.8,124,15.3,123.8,14z M117.5,27.5c-0.1,0.9-0.6,2-1.6,2.2c-0.3,0.1-0.6,0-0.9,0
			c-2.1,0-2-2.2-2-3.8c0-1.2,0.1-2.6,1.5-3C117.3,22.3,117.8,25.5,117.5,27.5z"/>
		<path class="st0" d="M52.1,14.7H37v17c0,0.4-0.1,1.1,0,1.5c0.2,0.3,1,0.2,1.3,0.2h3.5c0.3,0,1,0.1,1.2-0.1
			c0.3-0.3,0.1-1.4,0.1-1.8v-4.8h7.8v-4.4h-5.7c-0.5,0-1.7,0.2-2-0.1c-0.2-0.2-0.1-0.6-0.1-0.8v-2.2h6.8c0.4,0,2,0.2,2.2-0.1
			c0.2-0.2,0.1-0.9,0.1-1.2V14.7z"/>
		<rect x="157.6" y="13.7" class="st0" width="5.5" height="3.7"/>
		<path class="st0" d="M105.6,26.8c0-2.8,0.3-6.9-3.1-7.9c-0.5-0.1-1.1-0.3-1.7-0.3c-0.7,0-1.4,0.1-2.1,0.3c-0.7,0.2-1.5,0.6-2.1,1
			c-0.4,0.3-0.7,0.8-1.2,1l-0.3-2h-4.5v14.4h3.9c0.4,0,1.2,0.1,1.5-0.1c0.2-0.1,0.1-0.5,0.1-0.6v-6.7c0-0.8-0.1-1.7,0.5-2.4
			c1-1.2,3-1,3.4,0.6c0.2,1,0.1,2.1,0.1,3.1v6h3.9c0.4,0,1.2,0.1,1.5-0.1c0.3-0.2,0.1-1.3,0.1-1.7V26.8z"/>
		<path class="st0" d="M81.7,24.8c0,0.9,0.1,2,0,2.9C81.4,29,80,30,78.7,29.4c-1-0.5-1-1.8-1-2.8V19h-5.4v7.3c0,1.5-0.2,3.1,0.4,4.6
			c1.2,3,5,3.4,7.6,2.1c0.8-0.4,1.5-1,2.1-1.7l0.4,1.9l1.2,0.1h3.3V19h-5.4V24.8z"/>
		<path class="st0" d="M60.1,18.7c-1.9,0.2-3.7,0.8-5.1,2.2c-2.2,2.4-2.4,7.4-0.4,10c2.1,2.5,5.5,3,8.5,2.6c1.8-0.2,3.6-1.1,4.8-2.5
			c2-2.4,2.1-7,0.2-9.5C66.5,19.1,63.1,18.3,60.1,18.7z M63.2,26.9c0,1.3-0.3,2.8-1.8,3.1c-0.9,0.2-2,0.1-2.7-0.6
			c-0.7-0.7-0.7-1.8-0.7-2.7c0-1.9,0-3.8,2.2-4.2c0.3-0.1,0.6,0,1,0C63.4,23.1,63.2,25.2,63.2,26.9z"/>
		<path class="st0" d="M143.5,30c-0.6-0.6-1.4,0.3-1.7-0.9c-0.4-1.6-0.1-3.6-0.1-5.2c0-1.1,0-2.1-0.8-3c-0.8-0.9-2-1.5-3.1-1.8
			c-2.5-0.6-5.6-0.7-8.1,0.3c-1.3,0.5-2.5,1.4-2.9,2.8c-0.1,0.3-0.3,1,0,1.3c0.2,0.3,1.1,0.1,1.4,0.1h3.9c0.2-1.5,2.4-1.7,3.4-1
			c0.7,0.5,0.7,1.2,0.7,1.9c-2.7,0-6.4-0.2-8.5,1.7c-2.2,1.9-1.8,6.1,1.1,7.1c1.7,0.6,4,0.5,5.7-0.1c0.8-0.3,1.5-0.8,2.2-1.2
			c0.7,1.8,3.4,1.8,4.9,1.7c0.4,0,1.7-0.2,1.9-0.7c0.2-0.7,0-1.6,0-2.2C143.7,30.5,143.7,30.1,143.5,30z M135.3,29.1
			c-0.5,1.2-2.7,1.8-3.8,1c-1-0.8-0.2-2,0.7-2.3c0.4-0.2,0.8-0.2,1.2-0.3c0.6-0.1,1.3-0.2,2-0.2C135.5,27.9,135.6,28.6,135.3,29.1z"
			/>
		<path class="st0" d="M172.8,18.7c-1.6,0.2-3.3,0.6-4.5,1.7c-2.7,2.4-3.2,7.8-0.9,10.6c2.1,2.5,5.5,3,8.5,2.5
			c1.7-0.2,3.4-1,4.6-2.2c2.2-2.4,2.3-7.1,0.4-9.7C179.2,19.1,175.7,18.3,172.8,18.7z M175.9,26.9c0,1.3-0.3,2.9-1.8,3.2
			c-0.9,0.2-2,0.1-2.7-0.6c-0.5-0.5-0.6-1.3-0.7-2c-0.3-1.9-0.1-4.5,2.2-4.8c0.3-0.1,0.6,0,0.9,0C176,23.1,175.9,25.1,175.9,26.9z"
			/>
		<path class="st0" d="M199.9,31.6v-4.9c0-2.8,0.3-6.9-3.1-7.9c-0.5-0.1-1.1-0.3-1.7-0.3c-0.7,0-1.4,0.1-2.1,0.3
			c-0.7,0.2-1.5,0.6-2.1,1c-0.4,0.3-0.7,0.8-1.2,1l-0.3-2H185v14.4h3.9c0.4,0,1.2,0.1,1.5-0.1c0.2-0.1,0.1-0.5,0.1-0.6v-6.7
			c0-0.8-0.1-1.7,0.5-2.4c1-1.2,3-1.1,3.4,0.6c0.2,1,0.1,2.2,0.1,3.2v6h3.9c0.4,0,1.2,0.1,1.5-0.1C200.1,33,199.9,32,199.9,31.6z"/>
		<polygon class="st0" points="161.5,19 157.6,19 157.6,33.3 161.6,33.3 163,33.2 163,32.4 163,19.9 162.9,19 		"/>
	</g>
	<polygon class="st1" points="0,25.4 15.1,15.4 15.1,0.4 0,10.4 	"/>
	<polygon class="st2" points="15.1,35.7 0,25.6 0,10.6 15.1,20.6 	"/>
	<polygon class="st1" points="31.9,36.4 16.8,26.4 16.8,11.3 31.9,21.4 	"/>
	<polygon class="st2" points="16.8,46.6 31.9,36.6 31.9,21.6 16.8,31.6 	"/>
</g>
</svg>
