<svg width="301" height="44" viewBox="0 0 301 44" fill="none" xmlns="http://www.w3.org/2000/svg">
<g clip-path="url(#clip0_15_2588)">
<path d="M59.5739 28.6409C59.7992 31.9613 62.9841 33.1719 67.6048 33.1719C74.9178 33.1719 76.2639 31.1976 76.2639 29.8973C76.2639 27.1153 73.2089 26.3974 69.2641 25.8589L62.7607 24.9634C57.5117 24.2455 52.8013 22.0993 52.8013 15.9453C52.8013 10.2916 57.8249 6.7478 67.3814 6.7478C75.3207 6.7478 82.9029 9.08108 83.1282 17.2017H75.9947C75.7694 14.4197 72.5845 13.0736 67.5151 13.0736C61.953 13.0736 60.1123 14.4197 60.1123 15.9377C60.1123 17.912 62.7607 18.5402 66.3045 19.0328L72.5406 19.9302C78.328 20.7379 83.9339 23.1151 83.9339 29.8896C83.9339 35.5873 78.6411 39.4901 67.8301 39.4901C59.3505 39.4901 52.6218 36.8437 52.3965 28.6333L59.5739 28.6409Z" fill="black"/>
<path d="M87.7925 7.42175H94.926V20.566H115.696V7.42175H122.83V38.8255H115.696V26.3973H94.926V38.8255H87.7925V7.42175Z" fill="black"/>
<path d="M128.438 7.42175H135.571V38.8255H128.438V7.42175Z" fill="black"/>
<path d="M140.91 7.42175H163.789C170.07 7.42175 173.883 9.2605 173.883 16.4379C173.883 19.0862 172.896 21.8663 169.666 22.7198C173.748 23.5275 174.821 26.7563 174.821 29.8075C174.821 36.4464 171.098 38.8255 164.51 38.8255H140.91V7.42175ZM162.891 20.3407C165.673 20.3407 166.71 19.3555 166.71 17.1558C166.71 14.8226 165.497 13.8812 162.891 13.8812H148.042V20.3407H162.891ZM163.878 32.3699C166.301 32.3699 167.647 31.3827 167.647 29.0514C167.647 26.7601 166.616 25.5954 163.878 25.5954H148.042V32.3699H163.878Z" fill="black"/>
<path d="M178.638 7.42175H186.533L203.357 28.912H203.536V7.42175H210.536V38.8255H202.595L185.817 17.3811H185.638V38.8255H178.638V7.42175Z" fill="black"/>
<path d="M232.563 6.7478C243.33 6.7478 250.511 13.3887 250.511 23.033C250.511 32.4998 243.737 39.4977 232.563 39.4977C221.66 39.4977 214.483 32.8587 214.483 23.033C214.483 13.7018 221.347 6.7478 232.563 6.7478ZM232.563 33.0382C238.709 33.0382 243.284 29.8515 243.284 23.0788C243.284 16.2146 238.215 13.2092 232.563 13.2092C227.408 13.2092 221.706 15.8556 221.706 23.033C221.706 29.8515 226.327 33.0382 232.563 33.0382Z" fill="black"/>
<path d="M254.456 7.42175H277.336C283.618 7.42175 287.431 9.2605 287.431 16.4379C287.431 19.0862 286.444 21.8663 283.213 22.7198C287.296 23.5275 288.369 26.7563 288.369 29.8075C288.369 36.4464 284.645 38.8255 278.058 38.8255H254.456V7.42175ZM276.439 20.3407C279.219 20.3407 280.258 19.3555 280.258 17.1558C280.258 14.8226 279.045 13.8812 276.439 13.8812H261.59V20.3407H276.439ZM277.424 32.3699C279.847 32.3699 281.193 31.3827 281.193 29.0514C281.193 26.7601 280.162 25.5954 277.424 25.5954H261.59V32.3699H277.424Z" fill="black"/>
<path d="M293.217 7.42175H300.35V38.8255H293.217V7.42175Z" fill="black"/>
<path d="M29.2507 18.1259C30.7944 17.0998 32.5819 16.4999 34.4321 16.3869C36.2823 16.2739 38.1296 16.6518 39.7867 17.4824C39.0434 16.291 38.5491 14.9615 38.3337 13.5739C37.9915 11.4188 38.3298 9.21071 39.3014 7.25691C40.273 5.30311 41.8295 3.70085 43.7544 2.67315C41.3623 1.41136 38.7103 0.721056 36.0065 0.656418C33.3028 0.59178 30.6208 1.15456 28.1711 2.30061C25.7214 3.44665 23.5706 5.14478 21.8875 7.26173C20.2044 9.37868 19.0347 11.8569 18.4702 14.5018C17.4428 12.959 16.8421 11.1717 16.7291 9.32148C16.6161 7.4713 16.9948 5.62416 17.8268 3.96772C16.6064 4.72717 15.243 5.22801 13.8212 5.43919C12.3994 5.65038 10.9493 5.56743 9.56084 5.19547C8.17237 4.82352 6.87504 4.17049 5.74919 3.27681C4.62334 2.38313 3.69294 1.26784 3.01561 0C1.75465 2.39292 1.06528 5.04547 1.00161 7.74955C0.937931 10.4536 1.50167 13.1357 2.6486 15.5853C3.79553 18.0349 5.49446 20.1855 7.61209 21.8683C9.72972 23.551 12.2085 24.7202 14.8538 25.2842C13.3105 26.3103 11.5233 26.9102 9.67336 27.0232C7.82345 27.1362 5.97653 26.7583 4.31973 25.9277C5.07879 27.1481 5.57926 28.5114 5.79014 29.9331C6.00101 31.3548 5.91782 32.8047 5.5457 34.1929C5.17357 35.5812 4.52045 36.8783 3.62676 38.0039C2.73307 39.1295 1.61783 40.0597 0.350098 40.7369C2.74195 41.9964 5.39293 42.6849 8.09536 42.7486C10.7978 42.8123 13.4783 42.2494 15.9268 41.104C18.3753 39.9586 20.5254 38.2618 22.2086 36.1466C23.8917 34.0314 25.0623 31.5552 25.6286 28.912C26.6556 30.4551 27.256 32.2425 27.3687 34.0926C27.4814 35.9428 27.1024 37.7899 26.2701 39.4462C27.4905 38.6867 28.8539 38.1859 30.2757 37.9747C31.6975 37.7635 33.1476 37.8464 34.536 38.2184C35.9245 38.5904 37.2218 39.2434 38.3477 40.1371C39.4735 41.0307 40.4039 42.146 41.0813 43.4139C42.3422 41.021 43.0316 38.3684 43.0953 35.6643C43.159 32.9603 42.5952 30.2782 41.4483 27.8286C40.3014 25.3789 38.6024 23.2284 36.4848 21.5456C34.3672 19.8628 31.8884 18.6936 29.243 18.1297L29.2507 18.1259ZM25.556 21.7041C25.5562 22.1647 25.4658 22.6209 25.2897 23.0465C25.1137 23.4722 24.8555 23.859 24.53 24.1849C24.2045 24.5107 23.8179 24.7693 23.3925 24.9458C22.967 25.1223 22.511 25.2133 22.0504 25.2135C21.5896 25.2135 21.1333 25.1227 20.7076 24.9464C20.2819 24.77 19.8952 24.5114 19.5695 24.1855C19.2437 23.8596 18.9854 23.4727 18.8092 23.0469C18.6331 22.6212 18.5425 22.1649 18.5428 21.7041C18.5428 20.7738 18.9123 19.8816 19.5701 19.2239C20.2279 18.5661 21.1201 18.1965 22.0504 18.1965C22.9806 18.1965 23.8728 18.5661 24.5306 19.2239C25.1884 19.8816 25.5579 20.7738 25.5579 21.7041H25.556Z" fill="#AAFF01"/>
</g>
<defs>
<clipPath id="clip0_15_2588">
<rect width="301" height="44" fill="white"/>
</clipPath>
</defs>
</svg>
