<svg xmlns="http://www.w3.org/2000/svg" width="24" height="24" viewBox="0 0 24 24">
    <path data-name="shinja_ico" d="M13.739 2a8.187 8.187 0 0 0-8.261 8.111 23.85 23.85 0 0 0 .29 2.815A4.669 4.669 0 0 0 4.4 14.2 8.613 8.613 0 0 0 3 19.348a.826.826 0 1 0 1.652 0 7.369 7.369 0 0 1 .826-3.753V21a.826.826 0 1 0 1.652 0v-3.908c1.446 2.578 4.095 4.734 6.609 4.734 3.015 0 6.23-3.1 7.323-6.31h.019A19.613 19.613 0 0 0 22 10.111 8.187 8.187 0 0 0 13.739 2zm0 6.609s5.783.064 5.783 3.3c0 1.7-1.652 1.652-2.065 1.652-2.065 0-2.065-.826-3.717-.826s-1.652.826-3.717.826c-.15 0-2.065 0-2.065-1.652-.001-3.237 5.781-3.3 5.781-3.3zm-2.478 1.652a.826.826 0 1 0 .826.826.826.826 0 0 0-.826-.826zm4.957 0a.826.826 0 1 0 .826.826.826.826 0 0 0-.827-.826z"/>
</svg>
