<svg xmlns="http://www.w3.org/2000/svg" width="24" height="24" viewBox="0 0 24 24">
    <path d="M10.5 2a3.483 3.483 0 0 0-2.984 5.307 7.171 7.171 0 0 0-5.176 4.754A1 1 0 1 0 2 14a6.564 6.564 0 0 0 1.074 3.443l.787 4.721a1 1 0 0 0 .987.836h2.3a1 1 0 0 0 .986-.836l.119-.715A10.041 10.041 0 0 0 11.5 22a12.7 12.7 0 0 0 2.021-.162l.406.676a1 1 0 0 0 .857.486H17a1 1 0 0 0 .98-1.2l-.3-1.5a7.749 7.749 0 0 0 2.394-2.3h1.146a1 1 0 0 0 .969-.758l.586-2.344a1 1 0 0 0-.654-1.191l-1.428-.477a7.768 7.768 0 0 0-1.293-2.365A13.163 13.163 0 0 0 20 7l-5.574.619a13.785 13.785 0 0 0-.973-.256A3.488 3.488 0 0 0 10.5 2zm0 2A1.5 1.5 0 1 1 9 5.5 1.5 1.5 0 0 1 10.5 4zM10 9a13.27 13.27 0 0 1 3.846.533l.393.119.408-.045 3.107-.346c-.073.337-.162.677-.266 1.016l-.309 1 .648.824a5.82 5.82 0 0 1 .967 1.75l.313.957.955.318.549.182-.173.692h-1.454l-.592.914a5.8 5.8 0 0 1-1.781 1.705l-1.162.734.27 1.348.061.3h-.428l-.115-.191-.7-1.16-1.336.213A10.731 10.731 0 0 1 11.5 20a8.033 8.033 0 0 1-2.6-.443l-2.23-.76L6.307 21h-.614l-.646-3.885-.066-.393-.211-.338A4.59 4.59 0 0 1 4 14c0-.05.163-5 6-5zm6 4a1 1 0 1 0 1 1 1 1 0 0 0-1-1z" data-name="Group 76"/>
</svg>
