<svg xmlns="http://www.w3.org/2000/svg" width="131.431" height="40.001" viewBox="0 0 131.431 40.001">
    <path data-name="Path 1" d="M78.681 27.952H43.189a.43.43 0 0 1-.179-.028.444.444 0 0 1-.292-.416.452.452 0 0 1 .037-.177.463.463 0 0 1 .1-.147.436.436 0 0 1 .153-.1.451.451 0 0 1 .179-.029h35.492a.448.448 0 0 1 .177.029.435.435 0 0 1 .154.1.467.467 0 0 1 .1.147.451.451 0 0 1 .036.177.44.44 0 0 1-.036.176.46.46 0 0 1-.1.149.455.455 0 0 1-.154.1.427.427 0 0 1-.175.019z"/>
    <path data-name="Path 2" d="M123.774 27.952h-8.33a.43.43 0 0 1-.178-.028.451.451 0 0 1-.153-.1.462.462 0 0 1-.139-.325.452.452 0 0 1 .037-.177.445.445 0 0 1 .1-.147.433.433 0 0 1 .153-.1.451.451 0 0 1 .178-.029h8.33a.457.457 0 0 1 .178.029.45.45 0 0 1 .291.421.448.448 0 0 1-.139.325.461.461 0 0 1-.152.1.436.436 0 0 1-.176.031z"/>
    <path data-name="Path 3" d="M45.096 16.945c.072 1.079 1.111 1.478 2.618 1.478 2.384 0 2.824-.644 2.824-1.068 0-.907-.995-1.141-2.277-1.318l-2.12-.292c-1.712-.24-3.249-.939-3.249-2.943 0-1.842 1.638-3 4.754-3 2.587 0 5.06.76 5.134 3.408h-2.324c-.073-.907-1.111-1.342-2.764-1.342-1.813 0-2.414.44-2.414.936 0 .645.862.849 2.018 1.009l2.038.292c1.882.26 3.716 1.034 3.716 3.243 0 1.858-1.725 3.131-5.251 3.131-2.765 0-4.959-.863-5.034-3.539z"/>
    <path data-name="Path 4" d="M54.294 10.026h2.326v4.285h6.768v-4.285h2.325v10.238h-2.325v-4.051H56.62v4.051h-2.326z"/>
    <path data-name="Path 5" d="M67.55 10.026h2.326v10.238H67.55z"/>
    <path data-name="Path 6" d="M71.612 10.026h7.46c2.047 0 3.291.6 3.291 2.94a1.914 1.914 0 0 1-1.375 2.047 2.085 2.085 0 0 1 1.678 2.311c0 2.165-1.214 2.94-3.364 2.94h-7.69zm7.168 4.22c.906 0 1.245-.321 1.245-1.038 0-.761-.394-1.068-1.245-1.068h-4.841v2.106zm.322 3.921c.789 0 1.229-.322 1.229-1.079s-.337-1.127-1.229-1.127h-5.164v2.2z"/>
    <path data-name="Path 7" d="M83.915 10.026h2.57l5.486 7.006h.059v-7.006h2.277v10.238h-2.583l-5.47-6.995h-.062v6.995h-2.277z"/>
    <path data-name="Path 8" d="M101.497 9.811c3.509 0 5.85 2.165 5.85 5.309 0 3.086-2.2 5.366-5.85 5.366-3.555-.007-5.9-2.165-5.9-5.371 0-3.042 2.241-5.304 5.9-5.304zm0 8.571c2 0 3.5-1.039 3.5-3.248 0-2.238-1.653-3.217-3.5-3.217-1.678 0-3.539.862-3.539 3.2 0 2.219 1.505 3.258 3.539 3.258z"/>
    <path data-name="Path 9" d="M108.633 10.026h7.46c2.048 0 3.291.6 3.291 2.94a1.913 1.913 0 0 1-1.375 2.047 2.085 2.085 0 0 1 1.678 2.311c0 2.165-1.214 2.94-3.364 2.94h-7.693zm7.168 4.215c.906 0 1.245-.321 1.245-1.038 0-.761-.394-1.068-1.245-1.068h-4.842v2.111zm.322 3.921c.789 0 1.227-.322 1.227-1.079s-.336-1.127-1.227-1.127h-5.165v2.2z"/>
    <path data-name="Path 10" d="M121.271 10.026h2.325v10.238h-2.325z"/>
    <path data-name="Path 11" d="M1058.71 441.37h6.267v1.079h-5.053v.983h4.2v.917h-4.2v1.039h5.173v1.079h-6.381z" transform="translate(-951.401 -416.412)" style="fill:#9e9e9e"/>
    <path data-name="Path 12" d="M835.95 441.78c-.107-.663-.828-.735-1.468-.735s-1.079.258-1.079.6c0 .278.254.421.672.479l1.995.278c1.067.15 1.879.493 1.879 1.426s-.743 1.706-3.049 1.706c-1.42 0-3.3-.157-3.3-1.748h1.789c.024.706.821.821 1.51.821.755 0 1.256-.186 1.256-.635 0-.392-.36-.5-.994-.585l-1.453-.193c-1.018-.128-2-.4-2-1.438 0-1.141 1.067-1.6 2.905-1.6 1.207 0 3 .17 3.1 1.618z" transform="translate(-751.512 -415.347)" style="fill:#9e9e9e"/>
    <path data-name="Path 13" d="M888.874 442.34H886.7v-.97h5.943v.97h-2.175v4.122h-1.593z" transform="translate(-800.008 -416.412)" style="fill:#9e9e9e"/>
    <path data-name="Path 14" d="M943.324 445.413h-2.693l-.479 1.049h-1.712l2.577-5.092h1.918l2.577 5.092H943.8zm-1.341-2.945-.918 2.018h1.835z" transform="translate(-845.547 -416.412)" style="fill:#9e9e9e"/>
    <path data-name="Path 15" d="M1005.82 441.37h1.985l-2.494 2.046 2.685 3.046H1006l-1.847-2.2-.859.692v1.511h-1.475v-5.095h1.475v2.189z" transform="translate(-901.33 -416.412)" style="fill:#9e9e9e"/>
    <path data-name="Path 16" d="M223.448 277.431a1.969 1.969 0 1 1-2.757-2.757 49.58 49.58 0 0 0-4.63-8.674 49.489 49.489 0 0 0-4.63 8.679 1.969 1.969 0 0 1 .219 2.974 1.968 1.968 0 0 1-2.973-.219 49.486 49.486 0 0 0-8.677 4.627 49.486 49.486 0 0 0 8.679 4.63 1.968 1.968 0 1 1 2.757 2.757 49.536 49.536 0 0 0 4.625 8.674 49.581 49.581 0 0 0 4.63-8.679 1.968 1.968 0 1 1 2.757-2.757 49.534 49.534 0 0 0 8.674-4.625 49.49 49.49 0 0 0-8.674-4.63zm-9.535 4.63a2.15 2.15 0 1 1 2.148 2.15 2.15 2.15 0 0 1-2.148-2.15z" transform="translate(-195.616 -262.062)" style="fill:#9e9e9e"/>
</svg>
